<svg xmlns="http://www.w3.org/2000/svg" aria-hidden="true" style="position:absolute;width:0;height:0;overflow:hidden"><defs><symbol id="icon-client1" viewBox="0 0 32 32"><path d="m6.128 0 4.771 4.545-8.857-.004v22.053h23.149v-8.432l4.766 4.541V0H6.127zm18.854 17.629L11.454 4.74h13.528v12.889zm-4.2 5.739H5.706V8.536h1.066v13.828h14.011v1.005zM8.712 30.68l.562-1.155h.462l-.815 1.529v.892h-.42v-.891l-.814-1.529h.464l.562 1.156zm2.071-1.155h.099l.914 2.42h-.438l-.196-.566h-.937l-.195.566h-.437l.911-2.42h.279zm-.444 1.523h.709l-.354-1.027-.354 1.027zm2.925-.402-.041-.052-.011-.015a1.267 1.267 0 0 1-.142-.23l-.003-.008a.58.58 0 0 1-.051-.239v-.001c0-.126.026-.234.078-.325s.128-.162.218-.208l.003-.001a.71.71 0 0 1 .334-.075.64.64 0 0 1 .318.075.524.524 0 0 1 .237.673l.001-.003a.603.603 0 0 1-.116.173 1.198 1.198 0 0 1-.165.146l-.003.002-.168.123.479.565a.94.94 0 0 0 .104-.435v-.018.001h.346c0 .118-.012.229-.035.334a1.04 1.04 0 0 1-.179.403l.002-.003.354.419h-.463l-.141-.165a.933.933 0 0 1-.242.134l-.007.002c-.109.04-.235.063-.367.063h-.009a.916.916 0 0 1-.417-.088.664.664 0 0 1-.271-.24l-.002-.003a.656.656 0 0 1-.095-.343v-.012.001c0-.099.02-.185.061-.259a.805.805 0 0 1 .168-.21c.066-.059.14-.118.225-.178zm.199.244-.05.036a.62.62 0 0 0-.13.136l-.001.002a.407.407 0 0 0-.022.411l-.001-.002a.358.358 0 0 0 .133.137l.002.001c.06.032.13.051.205.051h.013-.001a.62.62 0 0 0 .392-.139l-.002.001-.538-.633zm.095-.442.148-.099a.536.536 0 0 0 .149-.135l.001-.001a.302.302 0 0 0 .045-.159v-.012.001a.24.24 0 0 0-.241-.233h-.014.001-.007a.245.245 0 0 0-.223.142l-.001.002a.34.34 0 0 0 .011.298l-.001-.002c.025.052.06.107.105.165l.027.035zm4.235.71c-.013.158-.058.3-.133.424s-.181.22-.317.291a1.064 1.064 0 0 1-.497.106.89.89 0 0 1-.711-.309c-.085-.1-.151-.22-.196-.361s-.067-.298-.067-.472v-.202c0-.174.022-.332.068-.472l.002-.007c.043-.131.111-.251.197-.353s.19-.178.311-.232c.122-.053.259-.08.411-.08h-.002.032c.167 0 .324.04.457.107l.004.002a.771.771 0 0 1 .305.292l-.003-.005c.076.129.124.275.139.435h-.415a.756.756 0 0 0-.073-.267c-.037-.075-.091-.131-.163-.17s-.167-.06-.283-.06h.001-.014a.55.55 0 0 0-.236.053l-.003.001a.485.485 0 0 0-.176.155c-.048.069-.084.153-.108.254s-.035.214-.035.343v.217c0 .113.012.224.032.32l.001.005a.805.805 0 0 0 .098.249l.001.002a.49.49 0 0 0 .172.163l-.003-.001c.072.038.153.06.24.06h.014-.001l.027.001a.621.621 0 0 0 .262-.057l.002-.001a.381.381 0 0 0 .166-.164l-.002.004a.74.74 0 0 0 .078-.272h.416zm2.308-.356v-.133c0-.182-.024-.347-.073-.49a1.051 1.051 0 0 0-.206-.373l.001.001a.88.88 0 0 0-.312-.232l-.006-.002a1.006 1.006 0 0 0-.409-.082.983.983 0 0 0-.407.082.88.88 0 0 0-.318.234 1.101 1.101 0 0 0-.206.371c-.047.14-.074.301-.074.468v.023-.001.133c0 .183.024.347.074.492.048.143.119.266.21.372l-.001-.001c.09.102.196.18.317.235.123.053.259.08.408.08s.286-.027.409-.08a.873.873 0 0 0 .316-.235c.088-.102.157-.225.204-.37s.072-.309.072-.492zm-.416-.136v.136c0 .136-.014.255-.04.36a.783.783 0 0 1-.115.267l.002-.003a.503.503 0 0 1-.18.16l-.003.001a.54.54 0 0 1-.237.053H19.1h.001-.011a.545.545 0 0 1-.239-.055l.003.001a.541.541 0 0 1-.185-.16l-.001-.002a.789.789 0 0 1-.115-.259l-.001-.005a1.405 1.405 0 0 1-.04-.341v-.02.001-.136c0-.135.014-.254.04-.357s.065-.191.115-.261a.5.5 0 0 1 .181-.158l.003-.001a.527.527 0 0 1 .237-.055h.01c.092 0 .174.018.248.054s.134.088.184.16a.72.72 0 0 1 .115.261c.027.104.04.223.04.357z" "/></symbol><symbol id="icon-client2" viewBox="0 0 32 32"><path d="M14.224 1.806c.142 0 .294.013.446.026l.044.004.045.003c.762.055 1.506.172 2.134.326V.403l.09.02a13 13 0 0 0-2.339-.378 18.093 18.093 0 0 0-.91-.044h-.267a17.862 17.862 0 0 0-4.51.582L8.83.611a17.91 17.91 0 0 0-4.665 1.921v17.475l-.1.051a19.358 19.358 0 0 1 4.666-1.83l-.139.031a19.906 19.906 0 0 1 3.971-.619h.052c.217-.011.433-.017.655-.018v-1.79h-.014c-1.766.023-3.479.263-4.967.661a23.81 23.81 0 0 0-1.731.513l-.623.212V3.592l.266-.128-.104.045a17.335 17.335 0 0 1 6.576-1.696h-.001l.029-.001.028.001c.247-.012.497-.018.741-.018h.28c.129.003.258.006.388.014h.084zm3.101 1.801c.391.03.796.044 1.205.044a19.413 19.413 0 0 0 4.881-.639l-.135.03a19.492 19.492 0 0 0 4.665-1.831l-.101.051v17.163a17.972 17.972 0 0 1-4.664 1.921l-.127.028a17.962 17.962 0 0 1-4.511.581h-.115c-1.177 0-2.319-.147-3.409-.425l.095.021V3.276c.265.062.537.118.814.164.455.077.934.133 1.401.167zm8.735.133-.623.209c-.572.193-1.151.365-1.731.518-1.551.415-3.332.657-5.169.663h-.004c-.406 0-.78-.011-1.141-.034l-.497-.033V19.08l.426.037c.395.035.803.052 1.214.052a16.554 16.554 0 0 0 4.189-.553l-.116.026a16.96 16.96 0 0 0 3.285-1.189l-.102.044.266-.128V3.739zM5.377 25.977a.916.916 0 0 0-.661-.281l-.034.001h.002-.014c-.139 0-.272.028-.393.078l.007-.003a.904.904 0 0 0-.51.512l-.002.006a1.001 1.001 0 0 0-.071.386v2.335c-.006.164.026.328.092.479.055.12.135.226.234.313a.824.824 0 0 0 .32.166c.114.031.231.048.349.048a.985.985 0 0 0 .968-.982v-.261h-.611v.222c0 .07-.013.136-.037.198l.001-.004a.392.392 0 0 1-.088.132.426.426 0 0 1-.255.089.308.308 0 0 1-.286-.125l-.001-.001a.548.548 0 0 1-.082-.289l.001-.024v.001-2.177a.74.74 0 0 1 .075-.349.31.31 0 0 1 .262-.143l.038.002h-.002.012c.107 0 .201.052.26.131l.001.001a.493.493 0 0 1 .101.3v.014-.001.202h.604v-.249c0-.143-.027-.28-.077-.405l.003.007a.955.955 0 0 0-.205-.329zm3.625-.026a1.051 1.051 0 0 0-1.058-.191.965.965 0 0 0-.557.511l-.002.006a1.08 1.08 0 0 0-.089.452v2.239c-.004.158.026.314.089.458a.888.888 0 0 0 .236.313.964.964 0 0 0 .322.197 1.049 1.049 0 0 0 1.059-.198l-.001.001a.948.948 0 0 0 .23-.313c.063-.144.093-.301.089-.458v-2.259c0-.156-.033-.305-.092-.439l.003.007a1.016 1.016 0 0 0-.23-.327zm-.284 3.018.002.035a.398.398 0 0 1-.123.289.446.446 0 0 1-.575 0l.001.001a.398.398 0 0 1-.121-.326v.002-2.239l-.001-.034a.4.4 0 0 1 .123-.289.446.446 0 0 1 .575 0l-.001-.001a.398.398 0 0 1 .121.326v-.002 2.24zm5.046 1v-4.24h-.586l-.771 2.244h-.01l-.777-2.244h-.58v4.239h.606V27.39h.011l.593 1.823h.302l.598-1.823h.01v2.578h.606zm3.441-3.942a.834.834 0 0 0-.342-.232 1.31 1.31 0 0 0-.416-.066h-.024.001-.9v4.24h.604v-1.656h.311c.189.009.376-.031.545-.116a.88.88 0 0 0 .329-.32l.002-.004a1 1 0 0 0 .138-.369c.021-.133.033-.287.033-.444v-.04.002a2.426 2.426 0 0 0-.059-.606.906.906 0 0 0-.223-.39zm-.311 1.292a.538.538 0 0 1-.057.224l.001-.003a.342.342 0 0 1-.154.147l-.002.001a.617.617 0 0 1-.254.054l-.033-.001h.002-.276V26.3h.311l.029-.001c.088 0 .172.02.247.055l-.004-.002a.35.35 0 0 1 .141.154l.001.002a.62.62 0 0 1 .053.236v.282c0 .098.006.201 0 .291h-.006zm3.172-1.59h-.495l-.934 4.24h.604l.177-.911h.823l.178.911h.604l-.958-4.24zm-.557 2.752.297-1.537h.011l.295 1.537h-.604zm4.46-.198h-.011l-.912-2.554h-.581v4.24h.604v-2.55h.012l.923 2.549h.568v-4.239h-.604v2.554zm3.691-2.554-.486 1.686h-.012l-.486-1.686h-.639l.83 2.448v1.791h.604v-1.791l.83-2.447h-.64zM3.692 31.166h.291v.817h.198v-.817h.289v-.167h-.778v.168zm2.448-.168-.382.985h.21l.081-.224h.392l.084.224h.215l-.391-.985h-.21zm-.031.595.134-.365.134.365h-.268zm2.45.027h.228v.127a.378.378 0 0 1-.234.083h-.014a.25.25 0 0 1-.195-.094.406.406 0 0 1-.073-.234l.001-.023v.001c0-.219.095-.329.283-.329l.021-.001c.097 0 .178.067.201.157v.001l.194-.038c-.042-.192-.18-.289-.417-.289h-.013a.492.492 0 0 0-.331.127.48.48 0 0 0-.141.38v-.002.023c0 .132.048.254.127.347l-.001-.001c.087.09.209.146.343.146L8.57 32h-.001.016c.155 0 .296-.06.402-.157v-.388h-.426v.166zm2.471-.622h-.199v.985h.689v-.167h-.49v-.817zm2.089 0h-.199v.985h.199v-.985zm2.042.657-.404-.657h-.193v.985h.185v-.643l.396.643h.198v-.985h-.182v.658zm1.846-.106h.49v-.167h-.49v-.215h.527v-.168h-.727v.985h.747v-.167h-.548v-.266zm4.477-.163h-.388v-.388h-.197v.984h.197v-.431h.388v.431h.198v-.985h-.198v.388zm1.858.163h.492v-.167h-.492v-.215h.529v-.168h-.726v.985h.746v-.167h-.548v-.266zm2.518.001c.171-.027.258-.118.258-.274a.23.23 0 0 0-.096-.219h-.001a.555.555 0 0 0-.25-.059l-.04.001h.002-.417v.984h.198v-.412h.055c.039 0 .076.008.109.023l-.002-.001a.201.201 0 0 1 .07.072l.215.313h.236l-.12-.192a.704.704 0 0 0-.215-.235l-.002-.002zm-.199-.137h-.146v-.247h.156a.515.515 0 0 1 .205.024l-.004-.001a.13.13 0 0 1-.009.2.537.537 0 0 1-.164.025l-.039-.001h.002zm2.099.136h.49v-.167h-.49v-.215h.529v-.168h-.729v.985h.747v-.167h-.548v-.266z" "/></symbol><symbol id="icon-client3" viewBox="0 0 32 32"><path d="M4.953 30.344c.012 0 .023.003.033.007.011.004.021.01.029.017l.16.151a1.317 1.317 0 0 1-.442.283l-.009.003a1.785 1.785 0 0 1-.641.103h-.034c-.204 0-.4-.035-.581-.1l.012.004a1.351 1.351 0 0 1-.454-.271l.001.001a1.214 1.214 0 0 1-.29-.411l-.003-.008a1.348 1.348 0 0 1-.103-.521v-.016.001-.017c0-.189.041-.368.114-.529l-.003.008c.07-.156.176-.298.311-.418a1.44 1.44 0 0 1 .471-.27l.01-.003c.179-.061.385-.096.6-.096h.022-.001a1.72 1.72 0 0 1 .576.087 1.6 1.6 0 0 1 .432.242l-.135.161a.134.134 0 0 1-.034.029h-.001a.092.092 0 0 1-.047.013h-.008a.132.132 0 0 1-.059-.018h.001l-.073-.043-.1-.055a1.158 1.158 0 0 0-.31-.096l-.007-.001a1.361 1.361 0 0 0-.219-.017H4.15h.001-.016c-.154 0-.302.026-.439.075l.009-.003a1.03 1.03 0 0 0-.35.203l.001-.001a.95.95 0 0 0-.227.323 1.05 1.05 0 0 0-.082.411v.015-.001.016c0 .15.03.293.085.423l-.003-.007a.924.924 0 0 0 .55.518l.006.002c.131.047.271.07.413.068a1.82 1.82 0 0 0 .245-.014.98.98 0 0 0 .532-.222l-.002.001a.126.126 0 0 1 .076-.028zm4.637-.759c.003.182-.034.364-.108.534a1.164 1.164 0 0 1-.301.413l-.001.001a1.38 1.38 0 0 1-.474.271 1.98 1.98 0 0 1-1.234-.004l.014.004a1.408 1.408 0 0 1-.474-.274l.002.001a1.224 1.224 0 0 1-.302-.41l-.003-.008a1.36 1.36 0 0 1 .003-1.078l-.003.009a1.25 1.25 0 0 1 .305-.42c.135-.114.295-.204.472-.262a1.943 1.943 0 0 1 1.22 0c.178.062.34.154.473.273.253.226.412.553.412.918v.034-.002zm-.422 0a1.096 1.096 0 0 0-.076-.429.886.886 0 0 0-.548-.521l-.006-.002a1.449 1.449 0 0 0-.898.003l.01-.003a.96.96 0 0 0-.34.203l.001-.001a.876.876 0 0 0-.215.314l-.002.006c-.102.28-.102.579 0 .858a.867.867 0 0 0 .217.321.983.983 0 0 0 .34.201c.286.092.601.092.887 0a.94.94 0 0 0 .339-.201.894.894 0 0 0 .215-.321c.054-.138.08-.284.076-.429zm3.586.451.041.096a2.886 2.886 0 0 1 .099-.191l1.025-1.593c.02-.028.039-.045.058-.051s.044-.008.069-.008h.017-.001.303v2.591h-.359v-1.985l-.001-.045.002-.047v.002l-1.032 1.615a.155.155 0 0 1-.06.059h-.001a.178.178 0 0 1-.087.022H12.766a.181.181 0 0 1-.087-.022h.001a.141.141 0 0 1-.059-.057v-.001l-1.062-1.626v2.08h-.348v-2.586h.316c.025 0 .05.003.073.009h-.002c.024.01.043.027.056.049v.001l1.047 1.595a.506.506 0 0 1 .053.093zm3.861-.129v.97h-.401v-2.588h.895c.169-.003.338.016.5.057.13.031.25.086.353.161a.672.672 0 0 1 .199.25l.002.004a.759.759 0 0 1 .068.331v.012a.72.72 0 0 1-.289.577l-.002.001c-.101.076-.22.135-.349.17l-.007.002a1.739 1.739 0 0 1-.483.06l-.486-.007zm0-.278h.486a1.12 1.12 0 0 0 .311-.04.69.69 0 0 0 .227-.113l-.002.001a.488.488 0 0 0 .185-.383v-.006a.418.418 0 0 0-.042-.213l.001.003a.504.504 0 0 0-.139-.176l-.001-.001a.86.86 0 0 0-.476-.141l-.066.002h.003-.486v1.067zm5.396 1.252h-.324a.155.155 0 0 1-.083-.024h.001a.156.156 0 0 1-.052-.059v-.001l-.273-.626h-1.372l-.283.625a.141.141 0 0 1-.05.058.156.156 0 0 1-.086.026h-.322l1.204-2.591h.417l1.221 2.591zm-1.988-.962h1.132l-.478-1.055a1.632 1.632 0 0 1-.088-.232l-.003-.012-.046.135c-.015.041-.03.079-.044.109l-.474 1.055zm3.722-1.618a.16.16 0 0 1 .059.046l1.757 1.953v-2.012h.359v2.591H25.711a.19.19 0 0 1-.076-.015h.001a.222.222 0 0 1-.064-.049l-1.754-1.952.001.045-.002.047v-.002 1.926h-.359v-2.591h.212a.184.184 0 0 1 .073.012zm5.135 1.549v1.029h-.401V29.85l-1.11-1.561h.368c.029 0 .055.008.078.022h-.001c.022.017.04.036.054.058l.695 1.007a.972.972 0 0 1 .12.223l.002.007.052-.111c.02-.041.043-.08.068-.119l.685-1.014a.297.297 0 0 1 .051-.055.136.136 0 0 1 .079-.026h.37l-1.113 1.568zm-16.325-5.91c.175.019.351.034.53.048 2.708-1.036 5-2.729 6.588-4.872s2.401-4.636 2.339-7.171l-2.985-2.551c.607 2.699.323 5.489-.82 8.058-1.143 2.568-3.1 4.815-5.652 6.487z" "/><path d="m11.489 23.821.08.014c2.727-1.667 4.807-3.994 5.969-6.681s1.355-5.61.552-8.392l-4.252-3.633c1.72 2.986 2.412 6.328 1.996 9.636s-1.923 6.45-4.345 9.056zm14.42-8.881c-.722 2.785-2.477 5.297-5.003 7.164-.688.515-1.467 1-2.286 1.416l-.091.042c2.057-.516 3.948-1.43 5.526-2.669s2.803-2.772 3.578-4.48l-1.724-1.472z" "/><path d="m25.233 14.529-2.455-2.097c-.047 2.392-.843 4.729-2.305 6.769s-3.537 3.708-6.009 4.831h.012c.551 0 1.101-.028 1.648-.084 2.311-.806 4.351-2.087 5.94-3.731s2.678-3.598 3.168-5.687zM11.844 3.597 8.916 1.091c-2.618.865-4.871 2.384-6.461 4.361C.863 7.428.007 9.768 0 12.167c.009 2.649 1.054 5.222 2.967 7.308s4.585 3.567 7.594 4.21c2.687-2.796 4.26-6.252 4.49-9.865s-.893-7.193-3.207-10.223zM32 14.144c-.011-3.145-1.477-6.157-4.08-8.38-2.601-2.223-6.128-3.476-9.808-3.486h-.031c-1.767 0-3.466.289-5.053.823l.112-.033L31.073 18.39c.584-1.247.925-2.707.927-4.247v-.001z" "/></symbol><symbol id="icon-client4" viewBox="0 0 32 32"><path d="M4.982 12.959h-.001c-.909 0-1.646.664-1.646 1.483v.001c0 .819.737 1.483 1.646 1.483h.001c.909 0 1.646-.664 1.646-1.483v-.001c0-.819-.737-1.483-1.646-1.483zm12.146-.474c-.002-1.138-.505-2.229-1.397-3.034s-2.102-1.258-3.365-1.261c-1.262.002-2.473.455-3.366 1.26s-1.396 1.896-1.398 3.034v6.276s9.525-.956 9.526-6.275v-.001zM0 20.821c.002.792.352 1.551.973 2.111s1.463.876 2.341.878c.878-.002 1.72-.318 2.341-.878s.971-1.318.973-2.11v-4.366S0 17.122 0 20.821zm3.314.782a.938.938 0 0 1-.482-.132.816.816 0 0 1-.318-.346l-.002-.005a.698.698 0 0 1-.049-.456l-.001.005a.766.766 0 0 1 .237-.4l.001-.001a.896.896 0 0 1 .439-.213l.005-.001c.168-.03.343-.015.501.045s.294.159.389.288a.732.732 0 0 1-.107.991.863.863 0 0 1-.276.168l-.006.002a.933.933 0 0 1-.332.06h-.001v-.003zm6.061-1.407v1.625H9.04v-1.625h.335zm.647.694v.261h-.739v-.261h.739zm.078-.694v.262h-.816v-.262h.817zm1.529.775v.077c0 .124-.017.235-.05.333a.71.71 0 0 1-.143.252l.001-.001a.6.6 0 0 1-.219.157.678.678 0 0 1-.27.055h-.011.001a.632.632 0 0 1-.498-.211l-.001-.001a.727.727 0 0 1-.142-.246l-.002-.005a1.005 1.005 0 0 1-.05-.318v-.016.001-.077c0-.124.017-.235.05-.333a.735.735 0 0 1 .143-.252l-.001.001a.62.62 0 0 1 .219-.158.693.693 0 0 1 .28-.055c.103 0 .196.018.28.055s.158.089.219.158a.726.726 0 0 1 .143.251c.034.097.051.208.051.332zm-.338.077v-.079c0-.086-.008-.162-.023-.227a.5.5 0 0 0-.07-.167l.001.002a.31.31 0 0 0-.11-.1l-.002-.001a.312.312 0 0 0-.144-.034h-.007a.316.316 0 0 0-.15.034.309.309 0 0 0-.11.099l-.001.001a.51.51 0 0 0-.068.162l-.001.003a.953.953 0 0 0-.023.213v.015-.001.079c0 .086.008.162.023.228s.039.121.069.166a.3.3 0 0 0 .262.136.32.32 0 0 0 .151-.034.306.306 0 0 0 .11-.101l.001-.001a.512.512 0 0 0 .068-.166.955.955 0 0 0 .023-.214v-.014.001zm1.425.348v-.004a.214.214 0 0 0-.014-.076l.001.001a.154.154 0 0 0-.047-.065.396.396 0 0 0-.095-.058l-.003-.001a1.245 1.245 0 0 0-.152-.058l-.01-.003a1.952 1.952 0 0 1-.222-.086l.013.005a.89.89 0 0 1-.176-.105l.002.001a.48.48 0 0 1-.117-.137l-.001-.002a.379.379 0 0 1-.043-.176V20.619c0-.065.017-.127.046-.181l-.001.002a.427.427 0 0 1 .125-.143.602.602 0 0 1 .19-.093.88.88 0 0 1 .242-.032c.12 0 .224.022.314.065s.158.102.208.178c.05.075.075.161.075.258h-.333v-.006a.24.24 0 0 0-.031-.12l.001.001a.209.209 0 0 0-.088-.086l-.001-.001a.311.311 0 0 0-.138-.031h-.012.001-.011a.345.345 0 0 0-.136.028l.002-.001a.194.194 0 0 0-.087.07v.001a.172.172 0 0 0-.029.095v.003c0 .027.006.053.02.075a.229.229 0 0 0 .062.062h.001c.027.019.061.038.101.055s.087.034.139.05c.089.027.166.057.234.09s.124.071.17.113a.414.414 0 0 1 .137.322v.016a.39.39 0 0 1-.16.315l-.001.001c-.052.038-.114.068-.186.088s-.153.03-.242.03a.916.916 0 0 1-.238-.032.724.724 0 0 1-.216-.099l.003.002a.477.477 0 0 1-.15-.163l-.001-.002a.474.474 0 0 1-.057-.238h.336c0 .051.008.093.023.128s.037.063.065.084h.001a.274.274 0 0 0 .101.046h.002c.04.01.084.014.131.014h.012a.366.366 0 0 0 .133-.025l-.002.001a.177.177 0 0 0 .112-.164v-.003zm1.289-1.2v1.625h-.334v-1.625h.334zm.501 0v.262H13.18v-.262h1.326zm1.281 1.364v.261h-.865v-.261h.865zm-.756-1.364v1.625h-.335v-1.625h.335zm.643.662v.254h-.752v-.254h.752zm.112-.662v.262h-.864v-.262h.864zm.196 0h.606a.83.83 0 0 1 .32.056c.09.037.159.093.208.165s.072.163.072.269c0 .087-.014.162-.045.224s-.071.114-.123.154l-.001.001a.635.635 0 0 1-.182.097l-.005.001-.106.056h-.527l-.002-.261h.403a.314.314 0 0 0 .137-.032l-.002.001a.212.212 0 0 0 .087-.086l.001-.001a.263.263 0 0 0 .03-.123V20.704a.295.295 0 0 0-.03-.129l.001.002a.195.195 0 0 0-.087-.086h-.001a.325.325 0 0 0-.138-.031H16.316v1.363h-.334v-1.625zm.908 1.625-.37-.725.354-.002.375.711v.015h-.358zm1.758-.579h-.414v-.261h.427a.35.35 0 0 0 .145-.032l-.002.001a.2.2 0 0 0 .087-.088l.001-.001a.331.331 0 0 0 0-.266l.001.002a.223.223 0 0 0-.087-.1l-.001-.001a.286.286 0 0 0-.144-.038h-.013.001-.298v1.363h-.334v-1.625h.632c.128 0 .236.023.328.069a.495.495 0 0 1 .282.464c0 .105-.024.196-.072.272s-.118.136-.21.178a.777.777 0 0 1-.328.062zm1.931.318v.261h-.865v-.261h.865zm-.755-1.364v1.625h-.335v-1.625h.335zm.642.662v.254h-.752v-.254h.752zm.112-.662v.262h-.864v-.262h.864zm.945 0v1.625h-.333v-1.625h.334zm.5 0v.262h-1.326v-.262h1.326zm1.281 1.364v.261h-.865v-.261h.865zm-.755-1.364v1.625h-.335v-1.625h.335zm.643.662v.254h-.752v-.254h.752zm.111-.662v.262h-.864v-.262h.864zm.197 0h.606c.125 0 .231.019.321.056s.159.093.208.165a.48.48 0 0 1 .072.269c0 .087-.015.162-.045.224s-.071.114-.123.154l-.001.001a.635.635 0 0 1-.182.097l-.005.001-.106.056h-.527l-.002-.261h.403a.314.314 0 0 0 .137-.032l-.002.001a.212.212 0 0 0 .087-.086l.001-.001a.268.268 0 0 0 .031-.124V20.703a.296.296 0 0 0-.03-.13l.001.002a.195.195 0 0 0-.087-.086h-.001a.325.325 0 0 0-.138-.031h-.281v1.363h-.335v-1.625zm.908 1.625-.371-.725.354-.002.375.711v.015h-.358zm1.402-.425v-.002a.22.22 0 0 0-.014-.077v.001a.154.154 0 0 0-.047-.065.396.396 0 0 0-.095-.058l-.003-.001a1.245 1.245 0 0 0-.152-.058l-.01-.003a2.05 2.05 0 0 1-.223-.086l.013.005a.89.89 0 0 1-.176-.105l.002.001a.48.48 0 0 1-.117-.137l-.001-.002a.379.379 0 0 1-.043-.176V20.62c0-.065.017-.127.046-.181l-.001.002a.427.427 0 0 1 .125-.143.602.602 0 0 1 .19-.093.88.88 0 0 1 .242-.032c.12 0 .224.022.314.065s.158.102.208.178c.05.075.075.161.075.258h-.333v-.006a.24.24 0 0 0-.031-.12l.001.001a.209.209 0 0 0-.088-.086l-.001-.001a.311.311 0 0 0-.138-.031h-.012.001-.011a.345.345 0 0 0-.136.028l.002-.001a.194.194 0 0 0-.087.07v.001a.173.173 0 0 0-.029.096v.003c0 .027.006.053.02.075a.229.229 0 0 0 .062.062h.001c.027.019.061.038.101.055s.087.034.139.05c.089.027.166.057.234.09s.124.071.17.113a.414.414 0 0 1 .137.322v.016a.39.39 0 0 1-.16.315l-.001.001c-.052.038-.114.068-.186.088s-.153.03-.242.03a.916.916 0 0 1-.238-.032.724.724 0 0 1-.216-.099l.003.002a.49.49 0 0 1-.151-.163l-.001-.002a.474.474 0 0 1-.057-.238h.336c0 .051.008.093.023.128s.037.063.065.084a.274.274 0 0 0 .101.046h.002c.04.01.084.014.132.014h.012a.366.366 0 0 0 .133-.025l-.002.001a.177.177 0 0 0 .112-.164v-.003z" "/></symbol><symbol id="icon-client5" viewBox="0 0 32 32"><path d="M2.434 23.808a.72.72 0 0 1 .188.492c.006.116-.017.233-.067.34s-.127.203-.224.28a1.344 1.344 0 0 1-.849.226h.004H0v-3.115h1.455a1.338 1.338 0 0 1 .812.21l-.005-.003c.094.071.169.16.217.262s.071.211.065.322a.67.67 0 0 1-.169.476.807.807 0 0 1-.437.243l-.005.001a.869.869 0 0 1 .502.266zm-1.743-.47h.622a.634.634 0 0 0 .395-.103.38.38 0 0 0 .106-.136l.001-.002a.33.33 0 0 0 .028-.135l-.002-.033v.001a.35.35 0 0 0-.029-.167l.001.002a.389.389 0 0 0-.103-.139h-.001a.645.645 0 0 0-.357-.107l-.053.002h.002-.613v.817zm1.079 1.195a.396.396 0 0 0 .114-.14l.001-.002a.348.348 0 0 0 .033-.15l-.001-.025v.001l.001-.022a.354.354 0 0 0-.036-.156l.001.002a.398.398 0 0 0-.116-.143l-.001-.001a.69.69 0 0 0-.381-.114l-.043.001h.002-.653v.857h.661a.707.707 0 0 0 .418-.108zm3.639.615-.81-1.218h-.305v1.217h-.696v-3.115h1.318a1.388 1.388 0 0 1 .922.268l-.004-.003c.184.169.296.392.313.628s-.058.47-.215.66c-.163.168-.385.28-.629.317l.862 1.244h-.757zm-1.114-1.642h.569c.396 0 .593-.157.593-.472l.001-.025a.418.418 0 0 0-.034-.166l.001.003a.464.464 0 0 0-.113-.161.66.66 0 0 0-.45-.125h.003-.577l.007.948zm4.921 1.015H7.828l-.245.627h-.73l1.275-3.08h.789l1.269 3.08h-.73l-.24-.627zm-.186-.472-.507-1.315-.507 1.315H9.03zm4.95 1.099h-.691l-1.55-2.118v2.118h-.69v-3.115h.69l1.55 2.13v-2.13h.691v3.115zm3.945-.746a1.45 1.45 0 0 1-.616.546l-.009.004a2.224 2.224 0 0 1-.972.196h-1.231v-3.115h1.231l.057-.001c.331 0 .645.071.929.198l-.014-.006c.265.12.483.31.625.544a1.66 1.66 0 0 1-.005 1.642l.004-.008zm-.791-.074c.187-.192.304-.454.306-.743a1.073 1.073 0 0 0-.306-.743 1.28 1.28 0 0 0-.869-.265h.004-.48v2.017h.48a1.287 1.287 0 0 0 .868-.266l-.003.002zM9.648 4.707s8.923 3.032 8.734 7.421v7.423s-8.916-3.034-8.731-7.423l-.003-7.421zm16.683 13.106A13.087 13.087 0 0 1 32 15.932v-2.324c-2.345.813-4.333 2.288-5.669 4.204z" "/><path d="M25.319 18.513c1.379-2.501 3.77-4.43 6.681-5.391V6.426s-12.708 4.32-12.439 10.57v10.568s.566-.193 1.457-.556c0-.338 0-.679.041-1.021.263-2.901 1.795-5.59 4.26-7.474z" "/><path d="M24.11 22.439a9.954 9.954 0 0 1 .465-2.234l-.02.07c-1.534 1.627-2.464 3.647-2.658 5.775-.018.201-.028.401-.034.608a36.082 36.082 0 0 0 2.655-1.26l-.211.101a9.622 9.622 0 0 1-.239-2.16c0-.317.015-.631.044-.94l-.003.04zm.505.038a9.523 9.523 0 0 0 .168 2.832l-.011-.062c3.472-1.87 7.373-4.759 7.222-8.252v-.305c-2.48.25-4.801 1.227-6.606 2.779a9.325 9.325 0 0 0-.771 2.97l-.003.037z" "/></symbol><symbol id="icon-client6" viewBox="0 0 32 32"><path d="M16.18 15.64a1 1 0 0 1-.209-.613l.002-.068v.003-.983c0-.301.068-.53.205-.687s.372-.235.705-.234c.313 0 .535.067.667.2.143.17.213.378.197.588v.232h-.56v-.234a1.171 1.171 0 0 0-.016-.229.22.22 0 0 0-.079-.136.318.318 0 0 0-.179-.054l-.025.001h.001l-.025-.001a.343.343 0 0 0-.19.057l.001-.001a.263.263 0 0 0-.092.148v.002a1.12 1.12 0 0 0-.022.224v.02-.001 1.193a.596.596 0 0 0 .073.338l-.002-.003a.268.268 0 0 0 .11.081l.002.001a.322.322 0 0 0 .145.019.302.302 0 0 0 .198-.054.24.24 0 0 0 .083-.144v-.001c.013-.079.019-.159.017-.239v-.242h.56v.221a.897.897 0 0 1-.195.619l.001-.002c-.128.146-.347.219-.67.219s-.565-.078-.704-.24zm2.331.01c-.141-.153-.212-.376-.212-.671v-1.034c0-.292.071-.513.212-.663s.378-.225.709-.224c.329 0 .564.075.706.224.142.15.213.371.213.663v1.034c0 .292-.072.516-.215.67s-.378.231-.704.231-.567-.078-.709-.23zm.97-.248a.57.57 0 0 0 .067-.306V13.83l.001-.033a.557.557 0 0 0-.069-.269l.001.003a.268.268 0 0 0-.112-.082l-.002-.001a.295.295 0 0 0-.15-.017h.002a.303.303 0 0 0-.15.019l.002-.001a.273.273 0 0 0-.115.082.549.549 0 0 0-.067.3v1.272a.57.57 0 0 0 .067.306.363.363 0 0 0 .262.103c.052 0 .101-.01.146-.028l-.003.001a.363.363 0 0 0 .118-.076v-.006zm1.332-2.314h.603l.453 1.908.463-1.908h.587l.059 2.754h-.434l-.046-1.914-.447 1.914h-.348l-.464-1.921-.043 1.921h-.438l.054-2.754zm2.841 0h.939c.541 0 .811.261.811.782 0 .499-.285.749-.854.748h-.32v1.224h-.579l.003-2.754zm.802 1.177a.443.443 0 0 0 .318-.088.44.44 0 0 0 .083-.313v.002l.001-.032a.824.824 0 0 0-.03-.224l.001.006a.203.203 0 0 0-.043-.076.242.242 0 0 0-.072-.055l-.001-.001a.593.593 0 0 0-.227-.045l-.033.001h.002-.225v.823h.225zm1.784-1.177h.622l.639 2.754h-.54l-.126-.635h-.555l-.13.635h-.548l.639-2.754zm.532 1.8-.217-1.156-.217 1.156h.433zm1.244-1.8h.406l.776 1.571v-1.571h.481v2.754h-.386l-.781-1.64v1.64h-.497l.001-2.754zm2.79 1.704-.645-1.7h.544l.394 1.092.37-1.092h.532l-.638 1.7v1.05h-.556v-1.05zm-13.731 2.254v.144h-.473v1.119h-.198V17.19h-.476v-.144h1.146zm1.482 1.263H18.4a.075.075 0 0 1-.039-.012.064.064 0 0 1-.025-.029l-.137-.3h-.656l-.137.3a.083.083 0 0 1-.02.034.067.067 0 0 1-.039.012h-.157l.58-1.263h.202l.587 1.258zm-.959-.468h.547l-.232-.514a.814.814 0 0 1-.042-.113l-.002-.006-.022.067-.021.053-.229.513zm1.958.345a.99.99 0 0 0 .109 0 .75.75 0 0 0 .181-.04l-.005.002c.026-.009.051-.02.078-.031v-.284H19.684a.077.077 0 0 1-.015-.002.032.032 0 0 1-.014-.008.028.028 0 0 1-.009-.01.021.021 0 0 1-.003-.012v-.098h.45v.484a.877.877 0 0 1-.238.102l-.006.001a1.19 1.19 0 0 1-.314.034h-.007a.886.886 0 0 1-.292-.049l.006.002a.723.723 0 0 1-.233-.133l.001.001a.616.616 0 0 1-.148-.196l-.002-.004a.617.617 0 0 1-.053-.254v-.017c0-.092.019-.18.054-.26l-.002.004c.033-.075.084-.143.15-.2s.145-.101.232-.131a1.08 1.08 0 0 1 .472-.036.813.813 0 0 1 .254.082c.036.02.069.042.101.066l-.055.078a.052.052 0 0 1-.019.017.06.06 0 0 1-.026.007.072.072 0 0 1-.036-.01.654.654 0 0 1-.06-.032l.003.002a.501.501 0 0 0-.074-.033l-.004-.001a.627.627 0 0 0-.102-.027l-.005-.001a.861.861 0 0 0-.139-.011h-.015a.68.68 0 0 0-.222.037l.005-.001a.447.447 0 0 0-.279.257.59.59 0 0 0 .001.426l-.001-.004a.469.469 0 0 0 .116.159.522.522 0 0 0 .169.1c.074.022.152.03.229.025zm1.848-.021h.633v.144h-.827v-1.263h.198l-.005 1.119zm1.291.144h-.198v-1.263h.198v1.263zm.737-1.257a.12.12 0 0 1 .031.023l.847.952-.001-.022.001-.023v.001-.941h.173v1.268H24.377a.09.09 0 0 1-.037-.008h.001a.092.092 0 0 1-.031-.024l-.846-.951v.982h-.166v-1.263h.103c.011 0 .022.002.033.006zm2.51-.006v.139h-.703v.417h.569v.134h-.569v.431h.702v.139h-.907v-1.26h.907zm-20.769-7.8 8.801 2.156v7.556l-8.801-2.155V9.246zm-.565-.644v8.568l9.928 2.433v-8.567L4.608 8.602z" "/><path d="M9.93 23.58 0 21.145v-8.567l9.93 2.434v8.569z" "/><path d="m4.773 9.149 8.686 2.129-3.694 3.188-8.687-2.13 3.695-3.187zm-.165-.547L0 12.578l9.93 2.434 4.607-3.976-9.928-2.435zm5.881 14.496 4.048-3.494-4.049-.993v4.488z" "/></symbol></defs></svg>